<?xml version="1.0" standalone="no"?>
<!DOCTYPE svg PUBLIC "-//W3C//DTD SVG 20010904//EN"
 "http://www.w3.org/TR/2001/REC-SVG-20010904/DTD/svg10.dtd">
<svg version="1.0" xmlns="http://www.w3.org/2000/svg"
 width="120.000000pt" height="120.000000pt" viewBox="0 0 120.000000 120.000000"
 preserveAspectRatio="xMidYMid meet">
<metadata>
Created by potrace 1.14, written by Peter Selinger 2001-2017
</metadata>
<g transform="translate(0.000000,120.000000) scale(0.100000,-0.100000)"
fill="#000000" stroke="none">
<path d="M13 1193 c-25 -9 -12 -32 56 -101 84 -86 98 -122 97 -255 -1 -53 1
-97 4 -97 3 0 16 16 29 35 13 19 40 50 61 69 29 26 38 43 42 78 8 66 33 110
105 182 94 95 93 96 -171 95 -116 0 -217 -3 -223 -6z"/>
<path d="M510 925 c-129 -34 -238 -123 -295 -239 -19 -39 -37 -87 -41 -106 -9
-57 -7 -177 5 -198 19 -35 13 -40 -59 -44 -75 -4 -101 -17 -81 -41 16 -20 83
-9 126 19 22 16 39 18 31 5 -4 -5 -3 -11 1 -13 5 -1 17 -21 28 -42 31 -60 123
-148 188 -179 94 -44 134 -49 422 -49 250 -1 271 -2 288 -19 23 -24 54 -24 67
0 13 25 13 147 0 172 -14 25 -56 25 -70 -1 -10 -19 -21 -20 -275 -20 -244 0
-270 2 -330 21 -235 78 -288 395 -91 546 99 76 231 87 344 29 18 -9 52 -37 77
-63 112 -115 114 -302 5 -426 l-40 -45 86 2 c101 1 110 8 144 110 80 240 -45
491 -285 572 -61 20 -185 25 -245 9z"/>
<path d="M139 277 c-42 -39 -55 -65 -34 -73 20 -8 42 11 66 57 31 61 22 66
-32 16z"/>
</g>
</svg>
